# xmcd CD database file
#
# Track frame offsets:
#	150
#	18193
#	35854
#	50736
#	65217
#	82255
#	99376
#	113960
#	130960
#	152361
#	174960
#	197035
#
# Disc length: 2823 seconds
#
# Revision: 0
# Processed by: cddbd v1.5.2PL0 Copyright (c) Steve Scherf et al.
# Submitted via: CDex 1.70beta2
#
DISCID=a50b050c
DTITLE=Sonny Bandura - Long Ride
DYEAR=2008
DGENRE=Country
TTITLE0=Lyin, Cheatin, Hurtin
TTITLE1=It's Over
TTITLE2=Who's Your Friend
TTITLE3=Thing called love
TTITLE4=Mother
TTITLE5=Long Ride
TTITLE6=Jealousy
TTITLE7=Move on
TTITLE8=No Shame
TTITLE9=Lucy
TTITLE10=Orange Blossom Special
TTITLE11=Drum Solo
EXTD=YEAR: 2008
EXTT0=
EXTT1=
EXTT2=
EXTT3=
EXTT4=
EXTT5=
EXTT6=
EXTT7=
EXTT8=
EXTT9=
EXTT10=
EXTT11=
PLAYORDER=
